<?xml version="1.0"?><svg version="1.2" baseProfile="tiny-ps" viewBox="0 0 900 900" xmlns="http://www.w3.org/2000/svg" xmlns:xlink="http://www.w3.org/1999/xlink"><title>Sendylo</title><g><g fill="#feffff" transform="matrix(.1 0 0 -.1 0 900)"><path d="M0 4500V0h9000v9000H0V4500z"/></g><g fill="#91d2fb" transform="matrix(.1 0 0 -.1 0 900)"><path d="M4180 7653c-69-5-326-42-410-59-275-56-594-186-809-330-348-232-589-543-721-932l-39-117-27-140-26-140-5-181-6-181 12-99c52-449 209-759 521-1025 129-110 239-179 452-286l147-73h41l200 100 199 100 93 21 93 21 100 49 100 48 80 62c44 34 100 74 124 90l45 29h25c35-1 58-20 76-63l15-35-14-46-14-46-45-62c-25-35-64-83-87-106l-42-44-128-84-128-84-31-35-31-36v-97l44-59c58-76 80-96 144-128l53-27 114-29c63-15 181-40 262-55 353-62 622-126 692-164 26-13 51-49 51-72v-17l-32-18-33-18-100 2-100 2-135 21c-74 11-195 32-268 45-73 14-174 30-224 35l-91 11-10-10-9-9 23-44 24-43 65-31 65-32 160-46c251-73 372-115 474-162 107-50 157-85 173-120l11-23-16-25-16-24-36-12-35-11-55 11c-62 13-440 134-640 205-173 62-213 74-257 77l-38 2-11-11-12-12 16-25 17-25 66-37c70-39 237-115 319-145 188-68 368-139 390-153 13-9 32-30 41-47l16-31-12-28-11-27-24-13-24-13-68 6-68 5-95 30c-107 34-279 100-420 162-104 46-267 104-316 113l-32 6-17-13-17-12 15-31c19-35 88-106 294-301l151-142 31-47c36-54 38-73 13-96l-19-17h-25c-83 0-142 41-573 394l-130 106-50 25c-27 13-121 58-208 99l-159 75-66 50c-123 91-261 248-377 429l-40 62h-53l-135-167c-304-376-407-504-501-618l-99-120-19-43-19-43v-137l14-34c21-49 61-93 146-157 406-307 925-546 1456-670 876-203 1756-148 2377 149 184 88 291 157 452 291l96 81 71 81c223 257 341 502 421 872l22 100v290l1 290-14 74c-21 116-65 260-112 368l-43 98-71 105-70 105-80 84c-183 191-427 351-745 488-126 55-441 166-560 197l-85 23-90-13-90-13h-147l-146-1-74 14c-69 13-167 46-358 121-111 43-146 49-467 85-382 42-477 64-517 122-21 30-20 51 3 72l19 17 78 8 79 7 125-7c69-4 191-8 272-8l147-1 25 10 26 10v39l-25 20c-38 29-190 102-370 176-88 37-223 99-300 138l-140 72-52 51-53 50v73l22 15 22 16h88l151-71c224-105 359-163 475-203l104-36h86l5 14 6 15-19 24-19 24-313 158c-321 162-442 227-514 276l-41 28-17 35-16 34 10 26 10 26 24 11 23 11 82-21 82-20 99-45c54-24 166-83 250-131 83-47 197-108 252-136l101-49h31c41 0 106 19 106 30 0 16-62 68-225 187-311 227-351 257-418 322-94 90-118 141-82 171l16 13 31-1 31-1 62-30c93-46 364-222 433-282 7-6 95-66 195-132l182-122 80-34 80-33 90 4 90 5 33 17 33 17 19 32 20 32v41c0 23-9 84-19 135-11 52-24 129-30 171l-11 77 10 78c5 43 15 100 21 126l11 49 38 39 37 39h31c45 0 61-9 78-43l16-30 18-137c28-205 65-327 126-407 35-46 78-146 115-265 59-193 91-280 125-338l33-57 27-18 26-17 187-38c102-21 218-41 257-45l72-7 163 239c196 286 296 432 426 618l97 140 4 65 3 65-19 31c-25 39-79 82-212 171-384 256-816 428-1310 522-90 17-356 50-494 61l-129 10-211-2c-116-1-231-3-256-5z"/></g><g fill="#02adff" transform="matrix(.1 0 0 -.1 0 900)"><path d="M4140 7644c-25-2-94-11-155-20-1020-143-1688-744-1819-1635l-16-107v-381l16-112 15-111 34-118 34-118 46-98 46-98 67-100 67-100 90-91c154-155 318-268 567-391l131-64h54l155 80c187 95 255 122 372 150l88 20 77 40c42 22 114 69 161 105s105 79 129 95l45 30h48l34-34 34-34v-84l-32-60-32-59-65-71-66-71-120-80c-134-88-178-126-195-168l-12-29 6-33 6-33 55-67 55-66 45-27c83-48 273-94 705-169 119-21 381-90 421-110 16-9 39-25 50-36l19-19v-61l-37-16-38-16-130 7-130 6-110 20c-219 39-411 70-477 77l-68 6v-10c0-5 7-24 16-42l16-32 36-24 37-24 125-41c69-22 159-49 200-60 186-48 402-133 486-191l45-31 11-23 11-24-7-25-6-26-30-15-29-15h-79l-119 35c-65 19-230 73-368 120-137 48-294 99-347 113l-97 27-12-12-12-12 6-15c17-45 273-166 606-287l174-64 34-31 33-31v-72l-22-20-22-21-33-6-34-6-62 11c-96 19-303 92-524 185-208 88-318 126-359 126h-25l-5-15-6-16 28-41 29-41 188-175 188-175 39-51c21-28 41-62 45-76l6-26-20-18-21-19h-76l-44 20c-56 25-170 111-420 316l-195 160-110 52c-60 29-144 68-185 87s-107 56-147 81l-72 46-76 73c-89 83-154 163-245 297l-65 96-26 3-25 3-160-197c-87-109-184-227-214-264-163-198-337-416-356-443-11-18-27-50-34-71l-13-39 6-57 5-56 20-40c33-63 124-140 323-271 513-339 1167-563 1849-635l125-13h340l340 1 95 12c52 7 166 26 253 43l158 30 130 40c789 242 1280 775 1394 1514l16 100 6 171 6 171-12 114c-25 225-68 384-153 554-120 239-293 426-554 600l-99 67-158 78c-216 108-418 185-691 266l-120 35-107-15-108-16h-239l-82 16c-80 15-124 29-385 127l-120 44-165 17c-228 23-456 53-543 72l-72 15-38 25-38 25-10 26-10 26 6 17 6 18 32 13 32 14 345-3 345-3 19 14 19 14-8 12c-20 33-148 98-395 201-336 140-508 243-541 321l-11 29 12 29 12 29 29 12 29 13 42-7 42-7 116-56c256-124 480-216 577-239l65-15 19 6 19 6v28l-32 25c-18 13-125 71-238 127-285 143-494 254-568 301l-63 41-15 28c-7 15-14 41-14 57v29l18 16 19 17h81l68-21c94-29 262-110 434-209 162-93 292-157 330-161 31-3 110 11 110 19-1 22-82 88-305 247-308 220-435 337-435 401v21l18 16 19 17h58l60-28c92-44 228-131 465-297 264-186 314-218 415-267l80-39 105 3 105 3 32 19 31 19 11 24 11 24v114l-26 120-26 120 5 115 5 115 17 53 16 52 30 35 31 34 35 7 35 7 24-12 25-11 13-33c8-17 17-57 20-87 13-111 28-197 47-274l20-79 30-56c16-31 45-83 64-116 34-59 72-160 135-362 18-56 44-128 59-160l28-58 31-32 31-31 78-20c43-12 146-32 229-46s161-27 175-31l24-6 17 13c14 11 90 119 380 543 41 61 127 186 191 278l116 169 6 39 7 39-12 37-12 38-32 34c-37 40-274 198-406 271-408 226-858 365-1400 430l-95 12-335 3c-184 1-355 1-380-1z"/></g><g fill="#0193ff" transform="matrix(.1 0 0 -.1 0 900)"><path d="M3615 6110l-20-9h17c9-1 20 4 23 9 7 11 7 11-20 0zm-1395-9c0-6 5-13 10-16l10-6v15c0 9-4 16-10 16-5 0-10-4-10-9zm980-40c0-6 5-13 10-16l10-6v15c0 9-4 16-10 16-5 0-10-4-10-9zm595-31l-5-7h25c33 0 40 12 9 13-13 1-26-2-29-6zm190 0c3-4 14-10 25-13l20-5-5 8c-3 4-14 10-25 13l-20 5 5-8zm1545-1v-10l10 6c6 3 10 8 10 11 0 2-4 4-10 4-5 0-10-5-10-11zm-2295-9l-6-10h32l-6 10c-3 6-8 10-10 10s-7-4-10-10zm741-25c4-9 14-20 24-25l17-9v28l-9-5-8-5-6 15c-3 9-10 16-15 16h-8l5-15zm1524-15c6-11 13-20 16-20 2 0 0 9-6 20s-13 20-16 20c-2 0 0-9 6-20zm-2200-5c0-8 2-15 4-15s6 7 10 15l5 15h-9c-6 0-10-7-10-15zm2237-20l5-15 9 6c12 7 11 11-5 17l-15 6 6-14zm-1455-2l17-4-6-15-5-14h10c5 0 12 8 14 18l5 18-26 1-26 1 17-5zm-747-13c3-5 8-10 11-10 2 0 4 5 4 10 0 6-5 10-11 10h-10l6-10zm682-1c7-7 15-10 18-7s-2 9-12 12l-18 7 12-12zm2172 11c-5-33-9-80-5-80 2 0 9 13 14 29l10 28-9 14c-5 8-9 12-10 9zm-4021-32c-2-34-1-40 6-78l7-35-9 13-9 14-7-32c-13-68 2-371 25-490 18-93 69-262 100-328 16-35 29-66 29-68 0-3 21-40 46-82 136-225 314-399 565-550 127-76 342-182 369-182 10 0 96 39 192 86 212 106 251 122 354 145l82 18 80 40 80 40 127 96 127 95h70l28-30 29-31 6-27 6-28-15-42c-22-62-81-146-151-216l-62-61-94-59c-52-33-115-77-141-98l-47-39-11-35-12-36 16-42 16-43 64-65 64-66 58-22c106-40 319-87 659-145 116-20 347-81 405-106 24-11 52-27 62-36l18-16v-65l-17-13-16-14-151 1h-151l-165 31c-91 18-187 35-215 39-27 3-59 8-70 10-63 12-196 26-201 21-3-3 4-23 15-46l21-41 48-24c45-23 118-47 462-152l155-47 100-48c55-26 117-62 138-79l37-31v-55l-15-21-15-21-33-8c-43-10-78-6-167 18-82 22-353 112-575 190-77 27-168 55-202 63l-62 15-16-6c-18-7-18-10-5-34 25-46 262-156 628-291 147-54 185-76 208-121l16-30-13-29-12-30-28-14c-38-20-75-19-183 6-102 24-253 79-461 167-204 86-300 122-349 128l-43 6-7-11-7-11 21-39 22-38 122-113c66-62 168-161 226-220l106-106 14-33 13-33-10-17c-5-9-22-22-37-29l-28-14-45 11-45 12-72 49c-96 67-162 119-367 289l-174 144-95 45c-52 24-141 66-197 93-56 26-130 67-164 90-128 87-270 241-398 432l-52 77h-44l-31-38c-26-32-144-177-394-486-36-45-117-144-180-221s-125-159-137-182l-24-41-6-49-5-50 16-55c8-30 25-67 37-82 49-63 294-236 504-356 453-261 1030-443 1605-506l135-15 255-6 255-6 155 12c517 39 948 175 1297 408 267 179 457 392 600 673l64 125 39 123c43 135 65 238 86 407l13 110-4 180-3 180-22 125-21 125-36 105c-110 324-297 557-628 782-38 27-74 48-79 48s-17 6-25 14c-24 21-195 108-301 154-190 81-319 127-538 192l-133 39-77-14c-42-7-120-16-172-20l-95-7-95 11-95 11-101 30c-56 17-134 43-173 60-39 16-71 27-71 25s-31 9-69 25c-82 33-102 38-206 45-117 9-392 43-530 67-66 11-128 21-137 21-9 1-15 4-13 7s-9 14-25 25l-28 19-16 32-15 33 20 25 19 25 57 11 57 12 90-2c50-1 175-6 278-12l188-11 41 9 42 9 5 13 4 12h-42v21l13-7c6-3-1 5-17 18l-30 25-20-4-21-5 13 9 13 10-43 13c-24 7-51 20-60 28l-17 15h-50l-5 13-5 14h-19c-10 0-27 7-38 15-10 8-23 15-27 15h-8l6-10c8-13-1-13-26 1l-20 10 7 11 7 11-11-7-12-7v22l-10-6-11-7 12-14 11-14h-10c-6 0-14 5-17 10l-6 10-19-10c-10-5-30-10-44-10h-26v59l23 4 22 4-32 8c-18 4-33 11-33 15v8h-52l-52 1-13-11c-7-6-11-13-9-17l4-6-634 3-634 2-2 23c0 12 0 34 1 50 1 15 0 27-3 27s-7-10-8-22zm1376-73c-21-16-54-20-54-6v10l28 4c15 2 31 5 36 6 6 0 1-6-10-14zm-1367-67l-5-13-1 19c-1 11 2 17 5 13 3-3 4-12 1-19zm1657-63l5-15h-9c-6 0-10 7-10 15s2 15 4 15 6-7 10-15zm31-15l6-10h-10c-6 0-11 5-11 10 0 6 2 10 4 10 3 0 8-4 11-10zm125-30l15-10h-10c-5 0-17 5-25 10l-15 10h10c6 0 17-5 25-10zm-157-87c-7-2-19-2-25 0l-13 5h50l-12-5zm222 347c3-5 8-10 11-10 2 0 4 5 4 10 0 6-5 10-11 10h-10l6-10zm-627-7l12-5-6-10-7-11 12 7 11 7-5 10c-4 5-12 9-18 8l-12-1 13-5zm-128-13c0-5 5-10 11-10h10l-6 10c-3 6-8 10-11 10-2 0-4-4-4-10zm2260-10l-15-10h26l-6-10-6-10h49l13 17 14 17-17-7-17-6-6 9c-8 12-16 12-35 0zm35-10l6-10h-10c-5 0-13 5-16 10l-6 10h10c5 0 13-4 16-10zm525 10l15-10-15-10-15-10h11c11 0 34 20 34 30 0 3-10 7-22 7l-23 2 15-9zm-2622-12c5-5 16-8 23-6l13 4-23 7-24 6 11-11zm2659-13l-6-15h-20c-11 0-21-4-23-9l-3-10-95-2c-52-1-101-4-108-7l-14-5 14-8 13-9h-36l-5 15c-4 8-10 15-16 15h-9l6-10 6-10h-10c-6 0-11 4-11 8v9l-42 1h-43l40-13c22-7 36-13 30-14l-10-1 15-10 15-9 20 4c11 3 37 6 58 8l39 4 9 14 9 14v-43l-13-5c-7-3-26-3-43-1l-29 4 30-10c17-5 49-11 72-12 24-2 43-6 43-10 0-5 13-8 29-8h30l15 16c26 25 66 80 66 89 0 5-12-2-26-16l-26-24 4 15c2 8 12 22 23 31l20 17-6 7-7 6-5-16zm-27-75c0-5-5-10-11-10h-10l6 10c3 6 8 10 11 10 2 0 4-4 4-10zm-530 50c19-13 30-13 30 0v10h-45l15-10zm58-17c7-3 16-2 19 1 4 3-2 6-13 5l-19-1 13-5zm47-1c-3-3-5-9-5-14v-10l13 5c6 2 20 0 30-5l17-9v8c0 11-47 32-55 25zm-2055-22c0-6 7-10 15-10s15 2 15 4-7 6-15 10l-15 5v-9zm2128-7c7-3 16-2 19 1 4 3-2 6-13 5l-19-1 13-5z"/></g><g fill="#007fff" transform="matrix(.1 0 0 -.1 0 900)"><path d="M3304 4131l6-9 20 5c28 7 25 13-6 13h-25l5-9zm3530-72l-6-11 11-11 11-11v22c0 24-5 28-16 11zm36 2c0-6 4-13 10-16l10-6-6 15c-7 18-14 21-14 7zm-2887-66l-13-14 10-6 10-6-5-9-6-9-14 6-15 5v-42h19l-6 17-6 16 12-7 13-8-7-25-6-26 15 6 16 6 1-17c1-9 1-30 1-46l-1-29 14-13c7-8 19-14 25-14h11l-6-10-6-10h32l-6 10-6 10h10c14 0 14-13 0-27l-10-10 25-20 25-20 26 4c13 3 23 8 21 12l-5 7 27-2c40-2 42-3 42-16v-12l-12 12c-15 15-29 16-25 1l2-12-15-4-15-5 15 12 15 12-13-4c-8-2-13-8-12-13l1-10 25 2 24 2-5-10-6-9 27-10c15-6 35-9 44-8 9 2 23-2 31-8 14-11 166-41 183-36 4 2 13-2 20-7 9-8 62-19 126-26 8-1 35-7 58-14l44-12 54 7 54 6 6-16 6-16h33l-15 11-15 10 18-3c10-2 17-7 15-11l-3-9 94-24 95-25 13 5 14 6-6-10-6-10h21c11 0 48-12 83-26 34-15 71-27 81-28l19-3 3-19c2-10 5-36 7-56l4-37-8 5-9 5v-9c0-5-17-14-39-20l-38-12h-59c-76 0-203 15-329 40-55 11-190 33-299 50l-199 31-9-9-9-9 16-13c8-7 15-18 15-26 0-13 59-64 75-64 4 0 49-16 101-35 51-19 101-37 111-38 37-8 81-20 173-48 52-16 111-34 130-40 124-38 331-144 350-180 6-10 10-31 10-48v-30l-25-20c-14-11-39-22-54-26l-28-6-104 26c-57 14-191 55-297 91s-201 67-210 69-52 17-96 34l-78 32-22-6-21-5 15 7 15 6-65 19c-36 10-77 18-92 18h-28v-12c0-7 4-18 8-24 11-15 104-70 179-105 96-45 342-141 508-200l80-28 37-40 38-40v-23c0-13-8-35-17-48-10-14-17-27-15-29 1-2-25-6-59-9l-62-4-90 22c-87 21-258 83-417 150-41 17-131 54-200 82l-125 51-52 4-53 4v-11c0-37 88-130 340-360 39-36 94-94 121-130l49-64v-54l-26-17-27-17-44 5-44 5-62 38c-55 34-136 96-387 299-80 64-104 84-156 128l-33 28-193 91c-202 95-295 150-376 223l-49 44-7-7-8-7 4 10c2 6-15 31-36 57l-39 47-11-6-11-6 7 8 7 8-22 29c-44 60-68 94-108 155l-40 62-17-6-17-7 14 17 13 17-16 2c-9 0-22 1-28 2l-13 1 2-12 3-13h-13c-6-1-28-21-47-47-19-25-43-53-53-63s-28-32-40-48-78-98-147-182-138-170-155-191c-16-21-66-82-110-135s-103-127-132-163l-52-66-17-55-17-54 11-54 11-54 26-44 26-44 55-42c470-360 1061-621 1654-732 264-49 317-56 615-76 249-17 650-3 837 30 570 100 971 285 1291 599l99 96 67 90c123 164 200 311 266 509l44 131 27 165 27 165v190l1 190-13 80c-7 44-17 83-22 86l-9 5-2 46-2 47-8-5-8-5 4 33 4 33-11 20c-6 11-10 24-9 29l3 9-15-13-16-12-1 13c-1 8-1 17 0 22 0 4-3 7-9 7h-10v-40H4012l-6 25-7 26 7 11 7 11-11-7-12-7v13c0 8 6 20 13 27l12 14-14-8-13-8 7 22c7 24 5 26-12 6zm84-201c-3-3-12-4-19-1l-13 5 19 1c11 1 17-2 13-5zm323-150c0-2-9-4-20-4s-20 4-20 9v9l20-5c11-3 20-7 20-9zm130 6c0-5-2-10-4-10-3 0-8 5-11 10l-6 10h10c6 0 11-4 11-10zm280-74c0-2-7-7-16-10l-15-6 6 10c6 10 25 14 25 6zm75-6c-3-5-10-10-16-10-5 0-9 5-9 10 0 6 7 10 16 10h15l-6-10zm2102-12l-5-13-1 19c-1 11 2 17 5 13 3-3 4-12 1-19zm-80 391l-5-20 14 12 14 11-6 9c-8 13-11 11-17-12zm-2933-80l-7-12 11 7 12 7v-15c0-8 4-17 9-20l9-6-5 20c-7 26-19 34-29 19z"/></g></g></svg>